<?xml version="1.0" encoding="UTF-8" standalone="no"?><!-- Generator: Gravit.io --><svg xmlns="http://www.w3.org/2000/svg" xmlns:xlink="http://www.w3.org/1999/xlink" style="isolation:isolate" viewBox="0 0 256 256" width="256pt" height="256pt"><g><mask id="_mask_eNtJ8MBzLR9vSaMavQ9FUqkHxV2uoLe9" x="-200%" y="-200%" width="400%" height="400%"><rect x="-200%" y="-200%" width="400%" height="400%" style="fill:white;"/><path d=" M 23.679 28.216 C 23.679 28.216 24.251 28.598 24.95 29.064 C 25.649 29.53 27.27 30.865 28.552 32.03 C 29.834 33.195 31.836 35.293 33.001 36.691 C 34.167 38.089 35.597 40.855 36.179 42.836 C 36.762 44.816 37.048 48.058 36.815 50.039 C 36.582 52.02 36.01 55.071 35.544 56.819 C 35.078 58.567 33.838 61.332 32.789 62.964 C 31.74 64.595 30.31 66.979 29.611 68.26 C 28.912 69.542 27.482 71.83 26.433 73.345 C 25.384 74.86 23.764 77.149 22.831 78.43 C 21.899 79.712 20.469 81.619 19.653 82.668 C 18.837 83.717 17.693 85.719 17.111 87.117 C 16.528 88.516 16.051 90.995 16.051 92.626 C 16.051 94.258 16.909 96.736 17.958 98.135 C 19.007 99.533 21.295 101.726 23.043 103.008 C 24.791 104.29 27.556 106.006 29.187 106.822 C 30.819 107.637 32.154 108.305 32.154 108.305 L 32.048 108.517 L 30.882 110.424 L 28.764 114.661 L 24.95 118.898 L 22.831 122.712 L 21.56 127.373 L 17.746 132.458 L 15.204 132.882 L 12.237 134.153 L 9.695 134.153 L 8 135.848 L 8 138.815 L 10.966 141.357 L 24.102 142.205 L 30.962 142.205 L 31.306 142.205 C 31.306 142.205 31.211 143.73 31.094 145.595 C 30.978 147.459 31.264 150.033 31.73 151.315 C 32.196 152.597 33.15 155.076 33.849 156.824 C 34.548 158.572 35.12 161.242 35.12 162.757 C 35.12 164.271 35.12 166.846 35.12 168.477 C 35.12 170.108 35.025 172.492 34.908 173.774 C 34.792 175.056 35.364 177.726 36.179 179.706 C 36.995 181.687 39.093 184.167 40.841 185.215 C 42.589 186.264 45.258 187.217 46.773 187.334 C 48.288 187.451 51.053 187.355 52.917 187.122 C 54.782 186.889 57.738 185.936 59.486 185.003 C 61.233 184.071 64.189 183.308 66.054 183.308 C 67.918 183.308 70.302 183.88 71.35 184.58 C 72.399 185.279 74.306 186.899 75.588 188.181 C 76.87 189.463 78.3 191.942 78.766 193.69 C 79.232 195.438 79.614 197.917 79.614 199.199 C 79.614 200.481 79.423 202.674 79.19 204.072 C 78.957 205.47 78.289 207.759 77.707 209.157 C 77.124 210.555 76.552 212.939 76.435 214.454 C 76.319 215.969 76.7 218.352 77.283 219.751 C 77.866 221.149 79.296 223.437 80.461 224.836 C 81.626 226.234 84.01 227.378 85.758 227.378 C 87.506 227.378 90.271 226.52 91.902 225.471 C 93.534 224.423 95.822 222.325 96.987 220.81 C 98.153 219.295 99.774 217.102 100.589 215.937 C 101.405 214.772 102.931 212.865 103.979 211.7 C 105.028 210.534 107.125 208.913 108.64 208.098 C 110.155 207.282 112.539 206.996 113.937 207.462 C 115.336 207.928 117.147 209.454 117.963 210.852 C 118.779 212.25 119.255 214.729 119.022 216.361 C 118.789 217.992 117.931 220.662 117.115 222.293 C 116.3 223.925 115.346 226.594 114.997 228.226 C 114.647 229.857 114.743 232.527 115.209 234.158 C 115.674 235.789 116.434 238.259 116.896 239.645 C 117.358 241.031 117.737 242.166 117.737 242.166 L 117.751 242.209 L 125.378 242.209 L 127.921 244.752 L 137.243 244.328 L 142.328 245.176 L 144.871 246.447 L 150.38 246.447 L 155.888 245.599 L 158.855 243.904 L 161.821 242.633 L 161.397 236.277 L 163.516 233.734 L 163.94 229.921 L 162.245 225.683 L 158.431 225.683 L 155.041 221.87 L 153.346 221.87 L 150.38 218.48 L 146.566 215.513 L 145.295 212.547 L 147.837 211.7 L 149.108 199.411 L 150.38 196.868 L 147.837 194.75 L 149.532 192.207 L 152.075 191.36 L 158.007 190.936 L 158.007 187.546 L 156.312 185.003 L 155.465 182.037 L 157.583 180.342 L 161.821 179.495 L 161.821 174.833 L 158.007 174.833 L 158.007 172.715 L 154.193 171.443 L 153.346 168.053 L 151.227 165.087 L 150.38 162.121 L 153.77 160.426 L 153.77 154.07 L 147.413 154.07 L 145.718 152.798 L 137.667 151.951 L 135.972 150.68 L 130.463 149.832 L 129.616 142.628 L 131.311 140.51 L 134.277 137.967 L 133.853 132.882 L 130.04 132.035 L 129.616 129.068 L 130.04 126.95 L 133.853 126.102 L 136.82 128.221 L 150.803 127.797 L 152.498 124.831 L 162.245 124.407 L 164.363 126.102 L 167.33 126.526 L 167.33 119.746 L 169.025 117.203 L 167.753 112.966 L 163.516 112.966 L 163.516 109.152 L 166.058 107.881 L 165.635 101.525 L 167.33 98.135 L 169.448 95.169 L 171.991 92.202 L 171.991 89.66 L 169.448 86.27 L 166.482 87.117 L 165.211 89.66 L 158.007 89.66 L 155.041 87.541 L 155.041 90.507 L 152.075 90.931 L 152.075 95.169 L 151.227 97.287 L 148.685 98.982 L 142.752 98.982 L 139.362 95.169 L 130.04 94.745 L 130.04 91.355 L 120.717 90.931 L 119.87 87.117 L 117.327 87.965 L 114.361 85.422 L 112.242 86.694 L 104.615 87.117 L 103.344 84.999 L 100.377 84.999 L 97.411 87.117 L 87.665 87.117 L 86.394 83.727 L 83.427 83.304 L 82.58 76.947 L 85.122 73.981 L 85.122 68.472 L 82.58 66.777 L 82.58 57.879 L 87.241 55.336 L 88.936 51.099 L 89.36 46.861 L 92.326 44.319 L 90.631 40.081 L 85.122 39.234 L 84.699 34.572 L 80.461 33.725 L 80.461 26.097 L 85.122 24.826 L 85.122 18.894 L 83.427 17.622 L 83.427 11.266 L 75.8 10.419 L 72.834 12.114 L 72.834 15.504 L 61.816 15.927 L 59.274 12.114 L 56.307 12.114 L 55.46 10.419 L 48.68 10.419 L 47.409 8.3 L 43.595 8.724 L 42.747 12.537 L 39.357 15.504 L 35.967 18.046 L 32.577 18.046 L 30.035 20.165 L 26.645 23.555 L 23.785 28.004 L 23.679 28.216 Z " fill="black" stroke="none"/></mask><path d=" M 23.679 28.216 C 23.679 28.216 24.251 28.598 24.95 29.064 C 25.649 29.53 27.27 30.865 28.552 32.03 C 29.834 33.195 31.836 35.293 33.001 36.691 C 34.167 38.089 35.597 40.855 36.179 42.836 C 36.762 44.816 37.048 48.058 36.815 50.039 C 36.582 52.02 36.01 55.071 35.544 56.819 C 35.078 58.567 33.838 61.332 32.789 62.964 C 31.74 64.595 30.31 66.979 29.611 68.26 C 28.912 69.542 27.482 71.83 26.433 73.345 C 25.384 74.86 23.764 77.149 22.831 78.43 C 21.899 79.712 20.469 81.619 19.653 82.668 C 18.837 83.717 17.693 85.719 17.111 87.117 C 16.528 88.516 16.051 90.995 16.051 92.626 C 16.051 94.258 16.909 96.736 17.958 98.135 C 19.007 99.533 21.295 101.726 23.043 103.008 C 24.791 104.29 27.556 106.006 29.187 106.822 C 30.819 107.637 32.154 108.305 32.154 108.305 L 32.048 108.517 L 30.882 110.424 L 28.764 114.661 L 24.95 118.898 L 22.831 122.712 L 21.56 127.373 L 17.746 132.458 L 15.204 132.882 L 12.237 134.153 L 9.695 134.153 L 8 135.848 L 8 138.815 L 10.966 141.357 L 24.102 142.205 L 30.962 142.205 L 31.306 142.205 C 31.306 142.205 31.211 143.73 31.094 145.595 C 30.978 147.459 31.264 150.033 31.73 151.315 C 32.196 152.597 33.15 155.076 33.849 156.824 C 34.548 158.572 35.12 161.242 35.12 162.757 C 35.12 164.271 35.12 166.846 35.12 168.477 C 35.12 170.108 35.025 172.492 34.908 173.774 C 34.792 175.056 35.364 177.726 36.179 179.706 C 36.995 181.687 39.093 184.167 40.841 185.215 C 42.589 186.264 45.258 187.217 46.773 187.334 C 48.288 187.451 51.053 187.355 52.917 187.122 C 54.782 186.889 57.738 185.936 59.486 185.003 C 61.233 184.071 64.189 183.308 66.054 183.308 C 67.918 183.308 70.302 183.88 71.35 184.58 C 72.399 185.279 74.306 186.899 75.588 188.181 C 76.87 189.463 78.3 191.942 78.766 193.69 C 79.232 195.438 79.614 197.917 79.614 199.199 C 79.614 200.481 79.423 202.674 79.19 204.072 C 78.957 205.47 78.289 207.759 77.707 209.157 C 77.124 210.555 76.552 212.939 76.435 214.454 C 76.319 215.969 76.7 218.352 77.283 219.751 C 77.866 221.149 79.296 223.437 80.461 224.836 C 81.626 226.234 84.01 227.378 85.758 227.378 C 87.506 227.378 90.271 226.52 91.902 225.471 C 93.534 224.423 95.822 222.325 96.987 220.81 C 98.153 219.295 99.774 217.102 100.589 215.937 C 101.405 214.772 102.931 212.865 103.979 211.7 C 105.028 210.534 107.125 208.913 108.64 208.098 C 110.155 207.282 112.539 206.996 113.937 207.462 C 115.336 207.928 117.147 209.454 117.963 210.852 C 118.779 212.25 119.255 214.729 119.022 216.361 C 118.789 217.992 117.931 220.662 117.115 222.293 C 116.3 223.925 115.346 226.594 114.997 228.226 C 114.647 229.857 114.743 232.527 115.209 234.158 C 115.674 235.789 116.434 238.259 116.896 239.645 C 117.358 241.031 117.737 242.166 117.737 242.166 L 117.751 242.209 L 125.378 242.209 L 127.921 244.752 L 137.243 244.328 L 142.328 245.176 L 144.871 246.447 L 150.38 246.447 L 155.888 245.599 L 158.855 243.904 L 161.821 242.633 L 161.397 236.277 L 163.516 233.734 L 163.94 229.921 L 162.245 225.683 L 158.431 225.683 L 155.041 221.87 L 153.346 221.87 L 150.38 218.48 L 146.566 215.513 L 145.295 212.547 L 147.837 211.7 L 149.108 199.411 L 150.38 196.868 L 147.837 194.75 L 149.532 192.207 L 152.075 191.36 L 158.007 190.936 L 158.007 187.546 L 156.312 185.003 L 155.465 182.037 L 157.583 180.342 L 161.821 179.495 L 161.821 174.833 L 158.007 174.833 L 158.007 172.715 L 154.193 171.443 L 153.346 168.053 L 151.227 165.087 L 150.38 162.121 L 153.77 160.426 L 153.77 154.07 L 147.413 154.07 L 145.718 152.798 L 137.667 151.951 L 135.972 150.68 L 130.463 149.832 L 129.616 142.628 L 131.311 140.51 L 134.277 137.967 L 133.853 132.882 L 130.04 132.035 L 129.616 129.068 L 130.04 126.95 L 133.853 126.102 L 136.82 128.221 L 150.803 127.797 L 152.498 124.831 L 162.245 124.407 L 164.363 126.102 L 167.33 126.526 L 167.33 119.746 L 169.025 117.203 L 167.753 112.966 L 163.516 112.966 L 163.516 109.152 L 166.058 107.881 L 165.635 101.525 L 167.33 98.135 L 169.448 95.169 L 171.991 92.202 L 171.991 89.66 L 169.448 86.27 L 166.482 87.117 L 165.211 89.66 L 158.007 89.66 L 155.041 87.541 L 155.041 90.507 L 152.075 90.931 L 152.075 95.169 L 151.227 97.287 L 148.685 98.982 L 142.752 98.982 L 139.362 95.169 L 130.04 94.745 L 130.04 91.355 L 120.717 90.931 L 119.87 87.117 L 117.327 87.965 L 114.361 85.422 L 112.242 86.694 L 104.615 87.117 L 103.344 84.999 L 100.377 84.999 L 97.411 87.117 L 87.665 87.117 L 86.394 83.727 L 83.427 83.304 L 82.58 76.947 L 85.122 73.981 L 85.122 68.472 L 82.58 66.777 L 82.58 57.879 L 87.241 55.336 L 88.936 51.099 L 89.36 46.861 L 92.326 44.319 L 90.631 40.081 L 85.122 39.234 L 84.699 34.572 L 80.461 33.725 L 80.461 26.097 L 85.122 24.826 L 85.122 18.894 L 83.427 17.622 L 83.427 11.266 L 75.8 10.419 L 72.834 12.114 L 72.834 15.504 L 61.816 15.927 L 59.274 12.114 L 56.307 12.114 L 55.46 10.419 L 48.68 10.419 L 47.409 8.3 L 43.595 8.724 L 42.747 12.537 L 39.357 15.504 L 35.967 18.046 L 32.577 18.046 L 30.035 20.165 L 26.645 23.555 L 23.785 28.004 L 23.679 28.216 Z " fill="none"/><path d=" M 23.679 28.216 C 23.679 28.216 24.251 28.598 24.95 29.064 C 25.649 29.53 27.27 30.865 28.552 32.03 C 29.834 33.195 31.836 35.293 33.001 36.691 C 34.167 38.089 35.597 40.855 36.179 42.836 C 36.762 44.816 37.048 48.058 36.815 50.039 C 36.582 52.02 36.01 55.071 35.544 56.819 C 35.078 58.567 33.838 61.332 32.789 62.964 C 31.74 64.595 30.31 66.979 29.611 68.26 C 28.912 69.542 27.482 71.83 26.433 73.345 C 25.384 74.86 23.764 77.149 22.831 78.43 C 21.899 79.712 20.469 81.619 19.653 82.668 C 18.837 83.717 17.693 85.719 17.111 87.117 C 16.528 88.516 16.051 90.995 16.051 92.626 C 16.051 94.258 16.909 96.736 17.958 98.135 C 19.007 99.533 21.295 101.726 23.043 103.008 C 24.791 104.29 27.556 106.006 29.187 106.822 C 30.819 107.637 32.154 108.305 32.154 108.305 L 32.048 108.517 L 30.882 110.424 L 28.764 114.661 L 24.95 118.898 L 22.831 122.712 L 21.56 127.373 L 17.746 132.458 L 15.204 132.882 L 12.237 134.153 L 9.695 134.153 L 8 135.848 L 8 138.815 L 10.966 141.357 L 24.102 142.205 L 30.962 142.205 L 31.306 142.205 C 31.306 142.205 31.211 143.73 31.094 145.595 C 30.978 147.459 31.264 150.033 31.73 151.315 C 32.196 152.597 33.15 155.076 33.849 156.824 C 34.548 158.572 35.12 161.242 35.12 162.757 C 35.12 164.271 35.12 166.846 35.12 168.477 C 35.12 170.108 35.025 172.492 34.908 173.774 C 34.792 175.056 35.364 177.726 36.179 179.706 C 36.995 181.687 39.093 184.167 40.841 185.215 C 42.589 186.264 45.258 187.217 46.773 187.334 C 48.288 187.451 51.053 187.355 52.917 187.122 C 54.782 186.889 57.738 185.936 59.486 185.003 C 61.233 184.071 64.189 183.308 66.054 183.308 C 67.918 183.308 70.302 183.88 71.35 184.58 C 72.399 185.279 74.306 186.899 75.588 188.181 C 76.87 189.463 78.3 191.942 78.766 193.69 C 79.232 195.438 79.614 197.917 79.614 199.199 C 79.614 200.481 79.423 202.674 79.19 204.072 C 78.957 205.47 78.289 207.759 77.707 209.157 C 77.124 210.555 76.552 212.939 76.435 214.454 C 76.319 215.969 76.7 218.352 77.283 219.751 C 77.866 221.149 79.296 223.437 80.461 224.836 C 81.626 226.234 84.01 227.378 85.758 227.378 C 87.506 227.378 90.271 226.52 91.902 225.471 C 93.534 224.423 95.822 222.325 96.987 220.81 C 98.153 219.295 99.774 217.102 100.589 215.937 C 101.405 214.772 102.931 212.865 103.979 211.7 C 105.028 210.534 107.125 208.913 108.64 208.098 C 110.155 207.282 112.539 206.996 113.937 207.462 C 115.336 207.928 117.147 209.454 117.963 210.852 C 118.779 212.25 119.255 214.729 119.022 216.361 C 118.789 217.992 117.931 220.662 117.115 222.293 C 116.3 223.925 115.346 226.594 114.997 228.226 C 114.647 229.857 114.743 232.527 115.209 234.158 C 115.674 235.789 116.434 238.259 116.896 239.645 C 117.358 241.031 117.737 242.166 117.737 242.166 L 117.751 242.209 L 125.378 242.209 L 127.921 244.752 L 137.243 244.328 L 142.328 245.176 L 144.871 246.447 L 150.38 246.447 L 155.888 245.599 L 158.855 243.904 L 161.821 242.633 L 161.397 236.277 L 163.516 233.734 L 163.94 229.921 L 162.245 225.683 L 158.431 225.683 L 155.041 221.87 L 153.346 221.87 L 150.38 218.48 L 146.566 215.513 L 145.295 212.547 L 147.837 211.7 L 149.108 199.411 L 150.38 196.868 L 147.837 194.75 L 149.532 192.207 L 152.075 191.36 L 158.007 190.936 L 158.007 187.546 L 156.312 185.003 L 155.465 182.037 L 157.583 180.342 L 161.821 179.495 L 161.821 174.833 L 158.007 174.833 L 158.007 172.715 L 154.193 171.443 L 153.346 168.053 L 151.227 165.087 L 150.38 162.121 L 153.77 160.426 L 153.77 154.07 L 147.413 154.07 L 145.718 152.798 L 137.667 151.951 L 135.972 150.68 L 130.463 149.832 L 129.616 142.628 L 131.311 140.51 L 134.277 137.967 L 133.853 132.882 L 130.04 132.035 L 129.616 129.068 L 130.04 126.95 L 133.853 126.102 L 136.82 128.221 L 150.803 127.797 L 152.498 124.831 L 162.245 124.407 L 164.363 126.102 L 167.33 126.526 L 167.33 119.746 L 169.025 117.203 L 167.753 112.966 L 163.516 112.966 L 163.516 109.152 L 166.058 107.881 L 165.635 101.525 L 167.33 98.135 L 169.448 95.169 L 171.991 92.202 L 171.991 89.66 L 169.448 86.27 L 166.482 87.117 L 165.211 89.66 L 158.007 89.66 L 155.041 87.541 L 155.041 90.507 L 152.075 90.931 L 152.075 95.169 L 151.227 97.287 L 148.685 98.982 L 142.752 98.982 L 139.362 95.169 L 130.04 94.745 L 130.04 91.355 L 120.717 90.931 L 119.87 87.117 L 117.327 87.965 L 114.361 85.422 L 112.242 86.694 L 104.615 87.117 L 103.344 84.999 L 100.377 84.999 L 97.411 87.117 L 87.665 87.117 L 86.394 83.727 L 83.427 83.304 L 82.58 76.947 L 85.122 73.981 L 85.122 68.472 L 82.58 66.777 L 82.58 57.879 L 87.241 55.336 L 88.936 51.099 L 89.36 46.861 L 92.326 44.319 L 90.631 40.081 L 85.122 39.234 L 84.699 34.572 L 80.461 33.725 L 80.461 26.097 L 85.122 24.826 L 85.122 18.894 L 83.427 17.622 L 83.427 11.266 L 75.8 10.419 L 72.834 12.114 L 72.834 15.504 L 61.816 15.927 L 59.274 12.114 L 56.307 12.114 L 55.46 10.419 L 48.68 10.419 L 47.409 8.3 L 43.595 8.724 L 42.747 12.537 L 39.357 15.504 L 35.967 18.046 L 32.577 18.046 L 30.035 20.165 L 26.645 23.555 L 23.785 28.004 L 23.679 28.216 Z " fill="none" mask="url(#_mask_eNtJ8MBzLR9vSaMavQ9FUqkHxV2uoLe9)" vector-effect="non-scaling-stroke" stroke-width="12" stroke="rgb(255,255,255)" stroke-linejoin="round" stroke-linecap="round" stroke-miterlimit="4"/><path d=" M 23.679 28.216 C 23.679 28.216 24.251 28.598 24.95 29.064 C 25.649 29.53 27.27 30.865 28.552 32.03 C 29.834 33.195 31.836 35.293 33.001 36.691 C 34.167 38.089 35.597 40.855 36.179 42.836 C 36.762 44.816 37.048 48.058 36.815 50.039 C 36.582 52.02 36.01 55.071 35.544 56.819 C 35.078 58.567 33.838 61.332 32.789 62.964 C 31.74 64.595 30.31 66.979 29.611 68.26 C 28.912 69.542 27.482 71.83 26.433 73.345 C 25.384 74.86 23.764 77.149 22.831 78.43 C 21.899 79.712 20.469 81.619 19.653 82.668 C 18.837 83.717 17.693 85.719 17.111 87.117 C 16.528 88.516 16.051 90.995 16.051 92.626 C 16.051 94.258 16.909 96.736 17.958 98.135 C 19.007 99.533 21.295 101.726 23.043 103.008 C 24.791 104.29 27.556 106.006 29.187 106.822 C 30.819 107.637 32.154 108.305 32.154 108.305 L 32.048 108.517 L 30.882 110.424 L 28.764 114.661 L 24.95 118.898 L 22.831 122.712 L 21.56 127.373 L 17.746 132.458 L 15.204 132.882 L 12.237 134.153 L 9.695 134.153 L 8 135.848 L 8 138.815 L 10.966 141.357 L 24.102 142.205 L 30.962 142.205 L 31.306 142.205 C 31.306 142.205 31.211 143.73 31.094 145.595 C 30.978 147.459 31.264 150.033 31.73 151.315 C 32.196 152.597 33.15 155.076 33.849 156.824 C 34.548 158.572 35.12 161.242 35.12 162.757 C 35.12 164.271 35.12 166.846 35.12 168.477 C 35.12 170.108 35.025 172.492 34.908 173.774 C 34.792 175.056 35.364 177.726 36.179 179.706 C 36.995 181.687 39.093 184.167 40.841 185.215 C 42.589 186.264 45.258 187.217 46.773 187.334 C 48.288 187.451 51.053 187.355 52.917 187.122 C 54.782 186.889 57.738 185.936 59.486 185.003 C 61.233 184.071 64.189 183.308 66.054 183.308 C 67.918 183.308 70.302 183.88 71.35 184.58 C 72.399 185.279 74.306 186.899 75.588 188.181 C 76.87 189.463 78.3 191.942 78.766 193.69 C 79.232 195.438 79.614 197.917 79.614 199.199 C 79.614 200.481 79.423 202.674 79.19 204.072 C 78.957 205.47 78.289 207.759 77.707 209.157 C 77.124 210.555 76.552 212.939 76.435 214.454 C 76.319 215.969 76.7 218.352 77.283 219.751 C 77.866 221.149 79.296 223.437 80.461 224.836 C 81.626 226.234 84.01 227.378 85.758 227.378 C 87.506 227.378 90.271 226.52 91.902 225.471 C 93.534 224.423 95.822 222.325 96.987 220.81 C 98.153 219.295 99.774 217.102 100.589 215.937 C 101.405 214.772 102.931 212.865 103.979 211.7 C 105.028 210.534 107.125 208.913 108.64 208.098 C 110.155 207.282 112.539 206.996 113.937 207.462 C 115.336 207.928 117.147 209.454 117.963 210.852 C 118.779 212.25 119.255 214.729 119.022 216.361 C 118.789 217.992 117.931 220.662 117.115 222.293 C 116.3 223.925 115.346 226.594 114.997 228.226 C 114.647 229.857 114.743 232.527 115.209 234.158 C 115.674 235.789 116.434 238.259 116.896 239.645 C 117.358 241.031 117.737 242.166 117.737 242.166 L 117.751 242.209 L 125.378 242.209 L 127.921 244.752 L 137.243 244.328 L 142.328 245.176 L 144.871 246.447 L 150.38 246.447 L 155.888 245.599 L 158.855 243.904 L 161.821 242.633 L 161.397 236.277 L 163.516 233.734 L 163.94 229.921 L 162.245 225.683 L 158.431 225.683 L 155.041 221.87 L 153.346 221.87 L 150.38 218.48 L 146.566 215.513 L 145.295 212.547 L 147.837 211.7 L 149.108 199.411 L 150.38 196.868 L 147.837 194.75 L 149.532 192.207 L 152.075 191.36 L 158.007 190.936 L 158.007 187.546 L 156.312 185.003 L 155.465 182.037 L 157.583 180.342 L 161.821 179.495 L 161.821 174.833 L 158.007 174.833 L 158.007 172.715 L 154.193 171.443 L 153.346 168.053 L 151.227 165.087 L 150.38 162.121 L 153.77 160.426 L 153.77 154.07 L 147.413 154.07 L 145.718 152.798 L 137.667 151.951 L 135.972 150.68 L 130.463 149.832 L 129.616 142.628 L 131.311 140.51 L 134.277 137.967 L 133.853 132.882 L 130.04 132.035 L 129.616 129.068 L 130.04 126.95 L 133.853 126.102 L 136.82 128.221 L 150.803 127.797 L 152.498 124.831 L 162.245 124.407 L 164.363 126.102 L 167.33 126.526 L 167.33 119.746 L 169.025 117.203 L 167.753 112.966 L 163.516 112.966 L 163.516 109.152 L 166.058 107.881 L 165.635 101.525 L 167.33 98.135 L 169.448 95.169 L 171.991 92.202 L 171.991 89.66 L 169.448 86.27 L 166.482 87.117 L 165.211 89.66 L 158.007 89.66 L 155.041 87.541 L 155.041 90.507 L 152.075 90.931 L 152.075 95.169 L 151.227 97.287 L 148.685 98.982 L 142.752 98.982 L 139.362 95.169 L 130.04 94.745 L 130.04 91.355 L 120.717 90.931 L 119.87 87.117 L 117.327 87.965 L 114.361 85.422 L 112.242 86.694 L 104.615 87.117 L 103.344 84.999 L 100.377 84.999 L 97.411 87.117 L 87.665 87.117 L 86.394 83.727 L 83.427 83.304 L 82.58 76.947 L 85.122 73.981 L 85.122 68.472 L 82.58 66.777 L 82.58 57.879 L 87.241 55.336 L 88.936 51.099 L 89.36 46.861 L 92.326 44.319 L 90.631 40.081 L 85.122 39.234 L 84.699 34.572 L 80.461 33.725 L 80.461 26.097 L 85.122 24.826 L 85.122 18.894 L 83.427 17.622 L 83.427 11.266 L 75.8 10.419 L 72.834 12.114 L 72.834 15.504 L 61.816 15.927 L 59.274 12.114 L 56.307 12.114 L 55.46 10.419 L 48.68 10.419 L 47.409 8.3 L 43.595 8.724 L 42.747 12.537 L 39.357 15.504 L 35.967 18.046 L 32.577 18.046 L 30.035 20.165 L 26.645 23.555 L 23.785 28.004 L 23.679 28.216 Z " fill="rgb(254,254,254)" vector-effect="non-scaling-stroke" stroke-width="1.202" stroke="rgb(112,113,115)" stroke-linejoin="round" stroke-linecap="round" stroke-miterlimit="4"/><path d=" M 23.679 28.216 C 23.679 28.216 24.251 28.598 24.95 29.064 C 25.649 29.53 27.27 30.865 28.552 32.03 C 29.834 33.195 31.836 35.293 33.001 36.691 C 34.167 38.089 35.597 40.855 36.179 42.836 C 36.762 44.816 37.048 48.058 36.815 50.039 C 36.582 52.02 36.01 55.071 35.544 56.819 C 35.078 58.567 33.838 61.332 32.789 62.964 C 31.74 64.595 30.31 66.979 29.611 68.26 C 28.912 69.542 27.482 71.83 26.433 73.345 C 25.384 74.86 23.764 77.149 22.831 78.43 C 21.899 79.712 20.469 81.619 19.653 82.668 C 18.837 83.717 17.693 85.719 17.111 87.117 C 16.528 88.516 16.051 90.995 16.051 92.626 C 16.051 94.258 16.909 96.736 17.958 98.135 C 19.007 99.533 21.295 101.726 23.043 103.008 C 24.791 104.29 27.556 106.006 29.187 106.822 C 30.819 107.637 32.154 108.305 32.154 108.305 L 32.048 108.517 L 30.882 110.424 L 28.764 114.661 L 24.95 118.898 L 22.831 122.712 L 21.56 127.373 L 17.746 132.458 L 15.204 132.882 L 12.237 134.153 L 9.695 134.153 L 8 135.848 L 8 138.815 L 10.966 141.357 L 24.102 142.205 L 30.962 142.205 L 31.306 142.205 C 31.306 142.205 31.211 143.73 31.094 145.595 C 30.978 147.459 31.264 150.033 31.73 151.315 C 32.196 152.597 33.15 155.076 33.849 156.824 C 34.548 158.572 35.12 161.242 35.12 162.757 C 35.12 164.271 35.12 166.846 35.12 168.477 C 35.12 170.108 35.025 172.492 34.908 173.774 C 34.792 175.056 35.364 177.726 36.179 179.706 C 36.995 181.687 39.093 184.167 40.841 185.215 C 42.589 186.264 45.258 187.217 46.773 187.334 C 48.288 187.451 51.053 187.355 52.917 187.122 C 54.782 186.889 57.738 185.936 59.486 185.003 C 61.233 184.071 64.189 183.308 66.054 183.308 C 67.918 183.308 70.302 183.88 71.35 184.58 C 72.399 185.279 74.306 186.899 75.588 188.181 C 76.87 189.463 78.3 191.942 78.766 193.69 C 79.232 195.438 79.614 197.917 79.614 199.199 C 79.614 200.481 79.423 202.674 79.19 204.072 C 78.957 205.47 78.289 207.759 77.707 209.157 C 77.124 210.555 76.552 212.939 76.435 214.454 C 76.319 215.969 76.7 218.352 77.283 219.751 C 77.866 221.149 79.296 223.437 80.461 224.836 C 81.626 226.234 84.01 227.378 85.758 227.378 C 87.506 227.378 90.271 226.52 91.902 225.471 C 93.534 224.423 95.822 222.325 96.987 220.81 C 98.153 219.295 99.774 217.102 100.589 215.937 C 101.405 214.772 102.931 212.865 103.979 211.7 C 105.028 210.534 107.125 208.913 108.64 208.098 C 110.155 207.282 112.539 206.996 113.937 207.462 C 115.336 207.928 117.147 209.454 117.963 210.852 C 118.779 212.25 119.255 214.729 119.022 216.361 C 118.789 217.992 117.931 220.662 117.115 222.293 C 116.3 223.925 115.346 226.594 114.997 228.226 C 114.647 229.857 114.743 232.527 115.209 234.158 C 115.674 235.789 116.434 238.259 116.896 239.645 C 117.358 241.031 117.737 242.166 117.737 242.166 L 117.751 242.209 L 125.378 242.209 L 127.921 244.752 L 137.243 244.328 L 142.328 245.176 L 144.871 246.447 L 150.38 246.447 L 155.888 245.599 L 158.855 243.904 L 161.821 242.633 L 161.397 236.277 L 163.516 233.734 L 163.94 229.921 L 162.245 225.683 L 158.431 225.683 L 155.041 221.87 L 153.346 221.87 L 150.38 218.48 L 146.566 215.513 L 145.295 212.547 L 147.837 211.7 L 149.108 199.411 L 150.38 196.868 L 147.837 194.75 L 149.532 192.207 L 152.075 191.36 L 158.007 190.936 L 158.007 187.546 L 156.312 185.003 L 155.465 182.037 L 157.583 180.342 L 161.821 179.495 L 161.821 174.833 L 158.007 174.833 L 158.007 172.715 L 154.193 171.443 L 153.346 168.053 L 151.227 165.087 L 150.38 162.121 L 153.77 160.426 L 153.77 154.07 L 147.413 154.07 L 145.718 152.798 L 137.667 151.951 L 135.972 150.68 L 130.463 149.832 L 129.616 142.628 L 131.311 140.51 L 134.277 137.967 L 133.853 132.882 L 130.04 132.035 L 129.616 129.068 L 130.04 126.95 L 133.853 126.102 L 136.82 128.221 L 150.803 127.797 L 152.498 124.831 L 162.245 124.407 L 164.363 126.102 L 167.33 126.526 L 167.33 119.746 L 169.025 117.203 L 167.753 112.966 L 163.516 112.966 L 163.516 109.152 L 166.058 107.881 L 165.635 101.525 L 167.33 98.135 L 169.448 95.169 L 171.991 92.202 L 171.991 89.66 L 169.448 86.27 L 166.482 87.117 L 165.211 89.66 L 158.007 89.66 L 155.041 87.541 L 155.041 90.507 L 152.075 90.931 L 152.075 95.169 L 151.227 97.287 L 148.685 98.982 L 142.752 98.982 L 139.362 95.169 L 130.04 94.745 L 130.04 91.355 L 120.717 90.931 L 119.87 87.117 L 117.327 87.965 L 114.361 85.422 L 112.242 86.694 L 104.615 87.117 L 103.344 84.999 L 100.377 84.999 L 97.411 87.117 L 87.665 87.117 L 86.394 83.727 L 83.427 83.304 L 82.58 76.947 L 85.122 73.981 L 85.122 68.472 L 82.58 66.777 L 82.58 57.879 L 87.241 55.336 L 88.936 51.099 L 89.36 46.861 L 92.326 44.319 L 90.631 40.081 L 85.122 39.234 L 84.699 34.572 L 80.461 33.725 L 80.461 26.097 L 85.122 24.826 L 85.122 18.894 L 83.427 17.622 L 83.427 11.266 L 75.8 10.419 L 72.834 12.114 L 72.834 15.504 L 61.816 15.927 L 59.274 12.114 L 56.307 12.114 L 55.46 10.419 L 48.68 10.419 L 47.409 8.3 L 43.595 8.724 L 42.747 12.537 L 39.357 15.504 L 35.967 18.046 L 32.577 18.046 L 30.035 20.165 L 26.645 23.555 L 23.785 28.004 L 23.679 28.216 Z  M 94.021 121.017 L 94.886 122.839 L 94.798 125.999 L 99.099 128.632 L 102.17 132.932 L 102.434 135.829 L 102.609 137.584 L 104.891 137.935 L 105.067 143.728 L 101.293 143.903 L 97.606 142.938 L 95.588 146.624 L 94.096 149.345 L 93.218 151.188 L 90.497 154.699 L 88.478 151.188 L 86.372 148.819 L 85.055 146.449 L 82.335 144.781 L 79.087 143.377 M 105.067 143.728 L 106.208 145.922 L 106.822 147.063 L 110.157 146.098 L 113.668 146.186 L 116.038 146.888 L 117.355 149.082 L 119.285 151.013 L 122.006 151.276 L 123.586 150.135 L 125.956 150.135 L 130.463 149.832 M 90.497 154.699 L 91.989 157.158 L 94.358 157.948 L 95.587 160.669 L 95.675 162.951 L 92.778 163.478 L 91.725 164.004 L 92.427 169.183 L 89.092 169.446 L 86.196 168.48 L 83.914 168.217 L 81.807 170.763 L 80.754 172.167 L 84.791 173.922 L 87.249 174.975 L 87.161 176.906 L 85.143 179.452 L 85.143 185.946 L 83.475 187.877 L 80.754 188.053 L 76.805 189.282 M 149.532 192.207 L 148.951 189.984 L 147.283 188.316 L 143.948 185.42 L 140.35 182.787 L 136.926 180.154 L 133.767 177.959 L 129.554 177.258 L 124.2 177.433 L 115.423 176.906 L 99.01 176.906 L 98.659 173.659 L 97.167 172.079 L 95.324 170.763 L 92.164 169.183 M 32.154 108.305 L 35.544 108.729 L 39.357 110.424 L 44.442 113.813 L 48.256 111.271 L 52.494 108.305 L 55.884 108.305 L 55.46 98.982 L 53.765 94.321 L 58.426 87.965 L 63.511 81.185 L 69.444 74.405 L 74.105 72.71 L 79.614 74.829 L 82.58 76.947 M 55.884 108.305 L 59.697 103.644 L 65.206 101.949 L 69.444 101.949 L 74.529 102.796 L 75.8 109.152 L 75.8 114.237 L 78.342 119.322 L 79.19 124.407 L 80.037 132.035 L 80.037 139.238 L 78.766 145.171 L 75.8 148.561 L 72.41 148.985 L 67.325 148.985 L 62.24 148.985 L 58.85 148.137 L 55.46 146.018 L 58.426 142.205 L 59.274 137.543 L 59.274 132.035 L 57.579 125.678 L 54.612 120.593 L 49.951 116.356 L 44.442 113.813 M 31.306 142.205 L 33.001 139.238 L 35.544 137.12 L 39.781 137.543 L 42.324 140.086 L 45.29 143.052 L 49.527 146.018 L 52.07 146.866 L 55.46 146.018 M 75.791 112.119 L 80.885 114.237 L 86.394 117.627 L 90.207 121.017 L 94.021 121.017 L 94.869 117.627 L 99.106 112.966 L 107.157 110.847 L 109.7 108.305 L 114.361 108.305 L 117.327 104.915 L 119.022 100.677 L 122.836 99.406 L 124.107 91.355" fill-rule="evenodd" fill="none" vector-effect="non-scaling-stroke" stroke-width="1.202" stroke="rgb(112,113,115)" stroke-linejoin="round" stroke-linecap="round" stroke-miterlimit="4"/><g opacity="0.5"><path d=" M 119.587 248 L 115.619 235.238 C 114.927 233.013 114.647 229.857 114.997 228.226 C 115.346 226.594 116.3 223.925 117.115 222.293 C 117.931 220.662 118.789 217.992 119.022 216.361 C 119.255 214.729 118.779 212.25 117.963 210.852 C 117.147 209.454 115.336 207.928 113.937 207.462 C 112.539 206.996 110.155 207.282 108.64 208.098 C 107.125 208.913 104.901 210.725 103.697 212.123 C 102.493 213.521 100.367 216.194 98.974 218.062 L 97.402 220.168 C 96.009 222.036 93.534 224.423 91.902 225.471 C 90.271 226.52 87.506 227.378 85.758 227.378 C 84.01 227.378 81.595 226.107 80.391 224.553 C 79.186 222.999 77.756 220.711 77.212 219.468 C 76.669 218.225 76.319 215.969 76.435 214.454 C 76.552 212.939 77.124 210.555 77.707 209.157 C 78.289 207.759 78.957 205.47 79.19 204.072 C 79.423 202.674 79.614 200.481 79.614 199.199 C 79.614 197.917 79.232 195.438 78.766 193.69 C 78.3 191.942 77.061 189.654 76.012 188.605 C 74.963 187.556 73.056 185.935 71.774 185.003 C 70.492 184.071 67.759 183.34 65.701 183.379 C 63.642 183.418 60.686 184.18 59.133 185.074 C 57.579 185.967 54.782 186.889 52.917 187.122 C 51.053 187.355 48.288 187.451 46.773 187.334 C 45.258 187.217 42.589 186.264 40.841 185.215 C 39.093 184.167 36.995 181.687 36.179 179.706 C 35.364 177.726 34.792 174.833 34.908 173.279 C 35.025 171.725 35.12 168.547 35.12 166.216 L 35.12 164.24 C 35.12 161.909 34.435 158.222 33.599 156.047 L 32.404 152.94 C 31.567 150.764 31.073 147.395 31.306 145.453 C 31.54 143.511 32.144 141.19 32.648 140.297 C 33.153 139.403 34.011 138.323 34.555 137.896 C 35.099 137.469 36.497 137.215 37.662 137.332 C 38.828 137.448 40.862 138.687 42.183 140.085 C 43.503 141.483 45.537 143.263 46.703 144.04 C 47.868 144.817 49.552 145.771 50.446 146.159 C 51.339 146.548 52.642 146.738 53.341 146.583 C 54.041 146.427 55.375 145.505 56.308 144.534 C 57.24 143.563 58.289 141.593 58.638 140.156 C 58.988 138.719 59.242 136.208 59.203 134.577 C 59.164 132.945 58.863 130.446 58.533 129.024 C 58.204 127.602 57.345 125.314 56.626 123.939 C 55.907 122.564 54.429 120.582 53.342 119.533 C 52.254 118.484 49.701 116.693 47.669 115.552 L 47.008 115.181 C 44.976 114.04 42.423 112.503 41.335 111.765 C 40.247 111.027 38.023 109.947 36.391 109.364 C 34.76 108.781 31.804 107.636 29.823 106.821 C 27.842 106.006 24.791 104.29 23.043 103.008 C 21.295 101.726 19.007 99.533 17.958 98.135 C 16.909 96.736 16.051 94.448 16.051 93.049 C 16.052 91.651 16.401 89.362 16.829 87.964 C 17.256 86.566 18.527 84.214 19.654 82.738 C 20.78 81.262 22.751 78.56 24.032 76.735 C 25.314 74.909 27.316 71.858 28.482 69.955 C 29.647 68.052 31.522 65.032 32.648 63.246 C 33.775 61.459 35.078 58.567 35.544 56.819 C 36.01 55.071 36.518 51.829 36.674 49.615 C 36.829 47.401 36.543 44.159 36.038 42.411 C 35.533 40.664 34.103 37.962 32.86 36.409 C 31.617 34.855 29.488 32.693 28.129 31.606 C 26.769 30.518 24.142 28.47 22.291 27.055 L 18.452 24.12" fill="none" vector-effect="non-scaling-stroke" stroke-width="10" stroke="rgb(164,194,227)" stroke-linejoin="round" stroke-linecap="round" stroke-miterlimit="4"/></g></g><g><path d=" M 64.692 125.013 C 64.675 113.374 69.219 102.19 77.354 93.87 C 81.29 89.841 85.969 86.623 91.13 84.393 C 96.469 82.095 102.213 80.904 108.024 80.913 C 113.835 80.904 119.579 82.095 124.918 84.393 C 130.078 86.623 134.758 89.841 138.694 93.861 C 146.828 102.19 151.381 113.374 151.356 125.013 C 151.381 136.644 146.828 147.836 138.694 156.156 C 134.758 160.177 130.078 163.395 124.918 165.634 C 119.579 167.931 113.835 169.114 108.024 169.114 C 102.213 169.114 96.469 167.931 91.13 165.634 C 85.969 163.395 81.29 160.177 77.354 156.156 C 69.219 147.836 64.675 136.644 64.692 125.013 Z " fill="rgb(255,255,255)"/><ellipse vector-effect="non-scaling-stroke" cx="175.26103990294558" cy="105.3932213271979" rx="64.73896009705442" ry="65.39322132719792" fill="rgb(255,255,255)"/><path d=" M 69.086 125.013 C 69.069 114.533 73.166 104.454 80.492 96.965 C 84.023 93.351 88.227 90.459 92.865 88.451 C 97.658 86.386 102.812 85.329 108.024 85.329 C 113.235 85.329 118.398 86.386 123.183 88.451 C 127.821 90.459 132.024 93.351 135.564 96.965 C 142.882 104.454 146.979 114.533 146.962 125.013 C 146.979 135.485 142.882 145.564 135.564 153.053 C 132.024 156.667 127.821 159.56 123.183 161.567 C 118.398 163.632 113.235 164.697 108.024 164.697 C 102.812 164.697 97.658 163.632 92.865 161.567 C 88.227 159.56 84.023 156.667 80.492 153.053 C 73.166 145.564 69.069 135.485 69.086 125.013 Z  M 71.085 125.013 C 71.06 115.057 74.953 105.478 81.918 98.358 C 85.269 94.933 89.259 92.188 93.66 90.287 C 98.199 88.328 103.083 87.32 108.024 87.32 C 112.965 87.32 117.857 88.328 122.396 90.287 C 126.797 92.188 130.779 94.933 134.139 98.358 C 141.095 105.478 144.988 115.057 144.971 125.013 C 144.988 134.969 141.095 144.54 134.139 151.66 C 130.779 155.094 126.797 157.831 122.396 159.74 C 117.857 161.698 112.965 162.698 108.024 162.698 C 103.083 162.698 98.199 161.698 93.66 159.74 C 89.259 157.831 85.269 155.094 81.918 151.66 C 74.953 144.54 71.06 134.969 71.085 125.013 Z " fill-rule="evenodd" fill="rgb(222,44,104)"/><ellipse vector-effect="non-scaling-stroke" cx="175.26103990294564" cy="105.39322132719786" rx="54.10957949905239" ry="54.65641868201928" fill="rgb(255,255,255)" stroke-width="10.756" stroke="rgb(222,44,104)" stroke-linejoin="miter" stroke-linecap="butt" stroke-miterlimit="4"/><ellipse vector-effect="non-scaling-stroke" cx="175.44491370001035" cy="105.35786102527516" rx="41.35981755770905" ry="42.05990046039932" fill="none" stroke-width="1.987" stroke="rgb(222,44,104)" stroke-linejoin="miter" stroke-linecap="butt" stroke-miterlimit="4"/><path d=" M 98.859 106.351 L 90.403 106.351 L 97.167 112.763 L 83.637 112.763 L 83.637 119.174 L 97.167 119.174 L 90.403 125.586 L 98.859 125.586 L 109.006 115.968 L 98.859 106.351 Z " fill="rgb(255,204,51)"/><path d=" M 186.708 132.636 L 175.987 121.54 L 199.215 121.54 L 199.215 110.444 L 175.987 110.444 L 186.708 99.348 L 172.413 99.348 L 156.331 115.991 L 172.413 132.634 L 186.708 132.636 Z " fill="rgb(255,204,51)"/></g></svg>